<svg width="36" height="36" viewBox="0 0 36 36" fill="none" xmlns="http://www.w3.org/2000/svg">
<path d="M12.0659 0.134949C5.43925 0.134949 0.0657501 5.59906 0.0657501 12.3399C0.0657501 17.7325 3.50414 22.3075 8.27215 23.9214C8.87188 24.0344 9.09206 23.6566 9.09206 23.3342C9.09206 23.0432 9.08093 22.0817 9.07576 21.0619C5.73732 21.8002 5.03287 19.6218 5.03287 19.6218C4.487 18.2111 3.70048 17.836 3.70048 17.836C2.61171 17.0784 3.78255 17.094 3.78255 17.094C4.98756 17.1799 5.62207 18.3518 5.62207 18.3518C6.69235 20.2177 8.42934 19.6782 9.11411 19.3664C9.22182 18.5777 9.53281 18.0389 9.87599 17.7343C7.21061 17.4257 4.4087 16.3791 4.4087 11.7025C4.4087 10.3699 4.87747 9.28115 5.64512 8.42641C5.52052 8.1188 5.10977 6.87763 5.76137 5.19645C5.76137 5.19645 6.76906 4.86842 9.06225 6.44753C10.0195 6.1771 11.046 6.04149 12.0659 6.03684C13.0857 6.04149 14.113 6.1771 15.072 6.44753C17.3624 4.86842 18.3687 5.19645 18.3687 5.19645C19.0219 6.87763 18.611 8.1188 18.4864 8.42641C19.2558 9.28115 19.7214 10.3699 19.7214 11.7025C19.7214 16.3903 16.9141 17.4224 14.242 17.7246C14.6724 18.1034 15.0559 18.8461 15.0559 19.9848C15.0559 21.6177 15.042 22.932 15.042 23.3342C15.042 23.659 15.258 24.0396 15.8663 23.9198C20.6317 22.3041 24.0658 17.7307 24.0658 12.3399C24.0658 5.59906 18.6931 0.134949 12.0659 0.134949Z" fill="white"/>
<path d="M4.61079 17.6587C4.58436 17.7195 4.49057 17.7375 4.40512 17.6959C4.31808 17.6561 4.2692 17.5734 4.29742 17.5126C4.32325 17.4501 4.41724 17.4329 4.50408 17.4744C4.59132 17.5144 4.641 17.5979 4.61079 17.6587Z" fill="white"/>
<path d="M5.09686 18.2101C5.03963 18.264 4.92775 18.239 4.85184 18.1537C4.77335 18.0686 4.75864 17.9548 4.81667 17.9C4.87569 17.8461 4.98418 17.8713 5.06288 17.9564C5.14137 18.0425 5.15667 18.1555 5.09686 18.2101Z" fill="white"/>
<path d="M5.56999 18.913C5.49647 18.965 5.37625 18.9163 5.30193 18.8077C5.2284 18.6992 5.2284 18.569 5.30352 18.5169C5.37803 18.4647 5.49647 18.5116 5.57178 18.6194C5.64511 18.7295 5.64511 18.8599 5.56999 18.913Z" fill="white"/>
<path d="M6.21822 19.5922C6.15245 19.6659 6.01235 19.6461 5.90982 19.5455C5.80489 19.447 5.77568 19.3074 5.84166 19.2336C5.90823 19.1596 6.04912 19.1805 6.15245 19.2803C6.25658 19.3785 6.28837 19.5192 6.21822 19.5922Z" fill="white"/>
<path d="M7.11245 19.9864C7.08344 20.082 6.94851 20.1255 6.81259 20.0849C6.67686 20.043 6.58804 19.931 6.61546 19.8344C6.64368 19.7382 6.7792 19.693 6.91612 19.7364C7.05164 19.778 7.14067 19.8892 7.11245 19.9864Z" fill="white"/>
<path d="M8.0945 20.0596C8.09787 20.1603 7.98262 20.2437 7.83994 20.2453C7.69647 20.2488 7.58042 20.1673 7.57883 20.0683C7.57883 19.9666 7.6915 19.884 7.83497 19.8815C7.97765 19.8787 8.0945 19.9596 8.0945 20.0596Z" fill="white"/>
<path d="M9.0084 19.9013C9.02549 19.9996 8.92633 20.1004 8.78465 20.1271C8.64535 20.1532 8.51638 20.0925 8.49869 19.9951C8.48141 19.8945 8.58235 19.7936 8.72145 19.7675C8.86334 19.7425 8.99032 19.8015 9.0084 19.9013Z" fill="white"/>
</svg>
