<svg width="36" height="36" viewBox="0 0 36 36" fill="none" xmlns="http://www.w3.org/2000/svg">
<path fill-rule="evenodd" clip-rule="evenodd" d="M12 0C5.37258 0 0 5.37258 0 12C0 18.6274 5.37258 24 12 24C18.6274 24 24 18.6274 24 12C24 5.37258 18.6274 0 12 0ZM18.3597 10.109C18.3647 10.1218 18.369 10.1346 18.3818 10.1738C18.3856 10.1877 18.3882 10.2024 18.3948 10.2385L18.3953 10.2416C18.3984 10.264 18.4 10.2873 18.4 10.3109V14.0891C18.4 14.1123 18.3984 14.1356 18.3911 14.1817C18.3884 14.1968 18.3857 14.2115 18.3733 14.2522L18.3729 14.2533C18.3687 14.2658 18.3642 14.2793 18.3477 14.3169C18.3423 14.3289 18.3364 14.3405 18.3144 14.377C18.3074 14.3882 18.3 14.3987 18.2737 14.4324C18.2652 14.4421 18.2562 14.4522 18.226 14.482C18.2159 14.4909 18.2059 14.4994 18.1958 14.5076C18.1939 14.509 18.192 14.5105 18.19 14.512C18.1835 14.517 18.1759 14.5229 18.1628 14.5324L12.4957 18.3105C12.4061 18.3702 12.3031 18.4 12.2 18.4C12.0969 18.4 11.9938 18.3702 11.9043 18.3105L6.23754 14.5324C6.23674 14.5319 6.23596 14.5313 6.23479 14.5304C6.23142 14.5279 6.22473 14.5225 6.2046 14.5076C6.19414 14.4994 6.18406 14.4909 6.15306 14.4611C6.14376 14.4521 6.13485 14.4421 6.10811 14.4091C6.10036 14.3987 6.093 14.3882 6.07053 14.3526C6.06394 14.3405 6.05813 14.3289 6.04069 14.2913C6.03526 14.2782 6.031 14.265 6.0186 14.2262C6.01473 14.2115 6.01201 14.1968 6.00504 14.1588C6.00194 14.1356 6 14.1123 6 14.0891V10.3109C6 10.2873 6.00194 10.264 6.0093 10.2183C6.01201 10.2032 6.01473 10.1881 6.02674 10.1478C6.031 10.1346 6.03526 10.1218 6.05231 10.0831C6.05813 10.0707 6.06394 10.0591 6.08602 10.023C6.093 10.0118 6.10036 10.0009 6.12671 9.96761C6.13485 9.95754 6.14376 9.94785 6.17438 9.91801C6.18406 9.9091 6.19414 9.90057 6.2046 9.89244C6.21235 9.88624 6.2201 9.88004 6.23754 9.86764L11.9043 6.08951C12.0837 5.97016 12.3166 5.97016 12.4957 6.08951L18.1628 9.86764C18.1642 9.86847 18.1654 9.86944 18.1686 9.87185C18.1727 9.87508 18.1803 9.8809 18.1958 9.89244C18.2059 9.90057 18.2159 9.9091 18.2469 9.93855C18.2562 9.94785 18.2651 9.95754 18.2919 9.99047C18.3 10.0009 18.3074 10.0118 18.3295 10.0478C18.3365 10.0591 18.3423 10.0707 18.3597 10.109Z" fill="white"/>
<path fill-rule="evenodd" clip-rule="evenodd" d="M12.7328 7.52869L16.9077 10.3117L15.0431 11.5591L12.7328 10.0137V7.52869ZM12.2 13.4605L10.3156 12.2L12.2 10.9395L14.0848 12.2L12.2 13.4605ZM12.7328 14.3863V16.8713L16.9077 14.0883L15.0431 12.8413L12.7328 14.3863ZM17.3344 13.0916L16.0014 12.2L17.3344 11.3083V13.0916ZM7.49226 14.0883L11.6672 16.8713V14.3863L9.3573 12.8413L7.49226 14.0883ZM7.06563 11.3083L8.39902 12.2L7.06563 13.0916V11.3083ZM11.6672 10.0137V7.52869L7.49226 10.3117L9.3573 11.5591L11.6672 10.0137Z" fill="white"/>
</svg>
